<?xml version="1.0" encoding="utf-8"?>
<!-- Generator: Adobe Illustrator 22.0.0, SVG Export Plug-In . SVG Version: 6.00 Build 0)  -->
<svg version="1.1" id="Capa_1" xmlns="http://www.w3.org/2000/svg" xmlns:xlink="http://www.w3.org/1999/xlink" x="0px" y="0px"
	 viewBox="0 0 160 80" style="enable-background:new 0 0 160 80;" xml:space="preserve">
<style type="text/css">
	.st0{fill:#FFFFFF;}
</style>
<g>
	<path class="st0" d="M22.6,42H11.3v13.1H4V23.2h7.3v12.5h11.3V23.2h7.3v31.9h-7.3V42z"/>
	<path class="st0" d="M52.9,49.5H41.7l-1.8,5.6h-7.6l10.8-31.9h8.4l10.8,31.9h-7.7L52.9,49.5z M47.3,31.8l-3.7,11.7H51L47.3,31.8z"
		/>
	<path class="st0" d="M78.7,55.1H64.7V23.2h13.5c6.1,0,9.7,3.2,9.7,8.3c0,3.9-2.2,6.4-5.1,7.3c3.5,0.8,5.8,4,5.8,7.7
		C88.6,51.7,85,55.1,78.7,55.1z M76.8,29.4H72v6.7h4.8c2.4,0,3.7-1.1,3.7-3.3S79.2,29.4,76.8,29.4z M77.3,41.8H72v7h5.4
		c2.4,0,3.8-1.2,3.8-3.5C81.2,43.1,79.7,41.8,77.3,41.8z"/>
	<path class="st0" d="M91.9,23.2h7.3v31.9h-7.3V23.2z"/>
	<path class="st0" d="M102,23.2h23.1v6.2h-7.9v25.7h-7.3V29.4H102V23.2z"/>
	<path class="st0" d="M146.5,49.5h-11.2l-1.8,5.6h-7.6l10.8-31.9h8.4L156,55.1h-7.7L146.5,49.5z M140.9,31.8l-3.7,11.7h7.4
		L140.9,31.8z"/>
</g>
</svg>
