<?xml version="1.0" encoding="utf-8"?>
<!-- Generator: Adobe Illustrator 22.0.0, SVG Export Plug-In . SVG Version: 6.00 Build 0)  -->
<svg version="1.1" id="Capa_2" xmlns="http://www.w3.org/2000/svg" xmlns:xlink="http://www.w3.org/1999/xlink" x="0px" y="0px"
	 viewBox="0 0 1280 1024" style="enable-background:new 0 0 1280 1024;" xml:space="preserve">
<style type="text/css">
	.st0{fill:#2C2E30;}
	.st1{fill:#1A2856;}
	.st2{fill:#FFFFFF;}
</style>
<rect x="-1300" class="st0" width="1280" height="1024"/>
<g>
	<path class="st1" d="M-2399.5,394c-75.9,0-137.5,61.6-137.5,137.5c0,14.5,2.3,28.6,6.5,41.7l10.3-3.8v27.9c2.7,5,5.7,9.7,9,14.3
		v-45.5l11.2-4.1v63.3c2.7,2.9,5.6,5.7,8.6,8.4v-74.9l11.3-4.2v88.2c2.3,1.7,4.7,3.3,7.1,4.8V552l11.7-4.3v106.6
		c3.3,1.7,6.8,3.2,10.3,4.7V499.3l8.1-7.3v88.2l10.6-8.9V483l9.8-8.3v88.3l10.3-8.7l-0.7-87.7l10-8.4V669c1.1,0,2.3,0,3.4,0
		c1.7,0,3.4,0,5-0.1V451.6l12.7-11.4l0.1,227.6c3.4-0.4,6.8-1,10.1-1.7l-0.4-225.7l53.3,46v156.2c34.3-25,56.6-65.5,56.6-111.2
		C-2262,455.6-2323.6,394-2399.5,394z"/>
	<g>
		<path class="st1" d="M-2114.5,548.6h-62.4V621h-40.1V445.2h40.1v68.9h62.4v-68.9h40.1V621h-40.1V548.6z"/>
		<path class="st1" d="M-1947.9,589.9h-61.5l-9.9,31.1h-42l59.6-175.8h46.4l59.6,175.8h-42.5L-1947.9,589.9z M-1978.7,492.5
			l-20.2,64.4h40.6L-1978.7,492.5z"/>
		<path class="st1" d="M-1805.8,621h-76.7V445.2h74.1c33.5,0,53.5,17.8,53.5,45.6c0,21.3-12,35.1-27.9,40.1
			c19.2,4.3,31.7,22.3,31.7,42.3C-1751.1,602.2-1771.1,621-1805.8,621z M-1816.1,479.5h-26.3v36.8h26.3c13.1,0,20.4-6.3,20.4-18.3
			S-1803,479.5-1816.1,479.5z M-1813.3,547.6h-29.1v38.8h29.6c13.4,0,21.1-6.5,21.1-19C-1791.7,554.9-1799.9,547.6-1813.3,547.6z"/>
		<path class="st1" d="M-1732.8,445.2h40.1V621h-40.1V445.2z"/>
		<path class="st1" d="M-1677.5,445.2h127.4v34.3h-43.6V621h-40.1V479.5h-43.6V445.2z"/>
		<path class="st1" d="M-1432.3,589.9h-61.5l-9.9,31.1h-42l59.6-175.8h46.4L-1380,621h-42.5L-1432.3,589.9z M-1463,492.5l-20.2,64.4
			h40.6L-1463,492.5z"/>
	</g>
</g>
<g>
	<path class="st2" d="M-1099.5,394c-75.9,0-137.5,61.6-137.5,137.5c0,14.5,2.3,28.6,6.5,41.7l10.3-3.8v27.9c2.7,5,5.7,9.7,9,14.3
		v-45.5l11.2-4.1v63.3c2.7,2.9,5.6,5.7,8.6,8.4v-74.9l11.3-4.2v88.2c2.3,1.7,4.7,3.3,7.1,4.8V552l11.7-4.3v106.6
		c3.3,1.7,6.8,3.2,10.3,4.7V499.3l8.1-7.3v88.2l10.6-8.9V483l9.8-8.3v88.3l10.3-8.7l-0.7-87.7l10-8.4V669c1.1,0,2.3,0,3.4,0
		c1.7,0,3.4,0,5-0.1V451.6l12.7-11.4l0.1,227.6c3.4-0.4,6.8-1,10.1-1.7l-0.4-225.7l53.3,46v156.2c34.3-25,56.6-65.5,56.6-111.2
		C-962,455.6-1023.6,394-1099.5,394z"/>
	<g>
		<path class="st2" d="M-812.5,546.6h-62.4V619H-915V443.2h40.1v68.9h62.4v-68.9h40.1V619h-40.1V546.6z"/>
		<path class="st2" d="M-645.9,587.9h-61.5l-9.9,31.1h-42l59.6-175.8h46.4l59.6,175.8h-42.5L-645.9,587.9z M-676.7,490.5l-20.2,64.4
			h40.6L-676.7,490.5z"/>
		<path class="st2" d="M-503.8,619h-76.7V443.2h74.1c33.5,0,53.5,17.8,53.5,45.6c0,21.3-12,35.1-27.9,40.1
			c19.2,4.3,31.7,22.3,31.7,42.3C-449.1,600.2-469.1,619-503.8,619z M-514.1,477.5h-26.3v36.8h26.3c13.1,0,20.4-6.3,20.4-18.3
			S-501,477.5-514.1,477.5z M-511.3,545.6h-29.1v38.8h29.6c13.4,0,21.1-6.5,21.1-19C-489.7,552.9-497.9,545.6-511.3,545.6z"/>
		<path class="st2" d="M-430.8,443.2h40.1V619h-40.1V443.2z"/>
		<path class="st2" d="M-375.5,443.2h127.4v34.3h-43.6V619h-40.1V477.5h-43.6V443.2z"/>
		<path class="st2" d="M-130.3,587.9h-61.5l-9.9,31.1h-42l59.6-175.8h46.4L-78,619h-42.5L-130.3,587.9z M-161,490.5l-20.2,64.4h40.6
			L-161,490.5z"/>
	</g>
</g>
<g>
	<path class="st0" d="M221.5,394C145.6,394,84,455.6,84,531.5c0,14.5,2.3,28.6,6.5,41.7l10.3-3.8v27.9c2.7,5,5.7,9.7,9,14.3v-45.5
		L121,562v63.3c2.7,2.9,5.6,5.7,8.6,8.4v-74.9l11.3-4.2v88.2c2.3,1.7,4.7,3.3,7.1,4.8V552l11.7-4.3v106.6c3.3,1.7,6.8,3.2,10.3,4.7
		V499.3l8.1-7.3v88.2l10.6-8.9V483l9.8-8.3v88.3l10.3-8.7l-0.7-87.7l10-8.4V669c1.1,0,2.3,0,3.4,0c1.7,0,3.4,0,5-0.1V451.6
		l12.7-11.4l0.1,227.6c3.4-0.4,6.8-1,10.1-1.7l-0.4-225.7l53.3,46v156.2c34.3-25,56.6-65.5,56.6-111.2
		C359,455.6,297.4,394,221.5,394z"/>
	<g>
		<path class="st0" d="M508.5,546.6h-62.4V619H406V443.2h40.1v68.9h62.4v-68.9h40.1V619h-40.1V546.6z"/>
		<path class="st0" d="M675.1,587.9h-61.5l-9.9,31.1h-42l59.6-175.8h46.4L727.4,619h-42.5L675.1,587.9z M644.3,490.5l-20.2,64.4
			h40.6L644.3,490.5z"/>
		<path class="st0" d="M817.2,619h-76.7V443.2h74.1c33.5,0,53.5,17.8,53.5,45.6c0,21.3-12,35.1-27.9,40.1
			c19.2,4.3,31.7,22.3,31.7,42.3C871.9,600.2,851.9,619,817.2,619z M806.9,477.5h-26.3v36.8h26.3c13.1,0,20.4-6.3,20.4-18.3
			S820,477.5,806.9,477.5z M809.7,545.6h-29.1v38.8h29.6c13.4,0,21.1-6.5,21.1-19C831.3,552.9,823.1,545.6,809.7,545.6z"/>
		<path class="st0" d="M890.2,443.2h40.1V619h-40.1V443.2z"/>
		<path class="st0" d="M945.5,443.2h127.4v34.3h-43.6V619h-40.1V477.5h-43.6V443.2z"/>
		<path class="st0" d="M1190.7,587.9h-61.5l-9.9,31.1h-42l59.6-175.8h46.4L1243,619h-42.5L1190.7,587.9z M1160,490.5l-20.2,64.4
			h40.6L1160,490.5z"/>
	</g>
</g>
</svg>
